<svg width="191" height="84" viewBox="0 0 191 84" fill="none" xmlns="http://www.w3.org/2000/svg">
<path d="M39.684 83.1929C38.1098 83.1929 36.7987 82.8639 35.7555 82.2061C34.7123 81.5482 33.9323 80.6319 33.406 79.443C32.8797 78.2588 32.5554 76.8773 32.438 75.2984L34.8392 74.5794C34.9567 75.7777 35.1728 76.8585 35.4877 77.8265C35.7978 78.7945 36.2865 79.5605 36.9538 80.1244C37.6258 80.6835 38.5468 80.9655 39.7169 80.9655C41.0091 80.9655 42.01 80.6319 42.729 79.9599C43.4433 79.2926 43.8051 78.2259 43.8051 76.7692C43.8051 75.4769 43.4903 74.3633 42.8559 73.4328C42.2215 72.4977 41.3569 71.5156 40.2526 70.4912L35.1211 65.5759C34.2095 64.6925 33.5422 63.7762 33.1146 62.8316C32.6823 61.8871 32.4662 60.8533 32.4662 59.7302C32.4662 57.7237 33.0629 56.1777 34.2612 55.1016C35.4548 54.0255 37.0478 53.4851 39.0308 53.4851C40.0599 53.4851 40.9856 53.6167 41.808 53.8798C42.635 54.143 43.3399 54.5659 43.9226 55.1533C44.51 55.7407 44.9705 56.4972 45.3041 57.4324C45.6378 58.3675 45.868 59.5 45.9855 60.8439L43.6547 61.4548C43.5561 60.233 43.3634 59.1898 43.0626 58.3158C42.7666 57.4418 42.2967 56.7792 41.6623 56.3234C41.0279 55.8723 40.1492 55.642 39.0261 55.642C37.8278 55.642 36.8504 55.9521 36.0845 56.5724C35.3185 57.1974 34.9379 58.1654 34.9379 59.4812C34.9379 60.2706 35.0883 60.9896 35.389 61.6334C35.685 62.2771 36.216 62.9726 36.9867 63.7151L42.1181 68.5598C43.2647 69.6359 44.2562 70.8295 45.0974 72.1453C45.9338 73.461 46.352 74.9459 46.352 76.5953C46.352 78.0567 46.0701 79.2738 45.5062 80.2559C44.9423 81.238 44.1622 81.9711 43.1566 82.4598C42.151 82.9485 40.995 83.1976 39.6746 83.1976L39.684 83.1929Z" fill="white"/>
<path d="M59.7069 37.6962C59.7069 37.6962 59.7116 37.6633 59.721 37.6633H59.7539C59.7539 37.6633 59.768 37.6727 59.768 37.6962V51.5633H72.6012V26.564H55.8019L53.1375 38.9274C53.1375 38.9274 53.1328 38.965 53.1234 38.9744C53.1093 38.9838 53.0999 38.9838 53.0858 38.9744C53.0717 38.965 53.0717 38.9462 53.0717 38.9274C52.7616 37.5505 52.4468 36.1737 52.1225 34.7922C51.7983 33.4153 51.4834 32.0432 51.1733 30.6757C50.8632 29.313 50.5389 27.9409 50.21 26.5593H32.4427V51.5586H44.6087V37.7949C44.6087 37.7949 44.618 37.762 44.6415 37.762C44.665 37.762 44.6744 37.7714 44.6744 37.7949C45.2289 40.0834 45.774 42.3718 46.305 44.6603C46.836 46.9488 47.3811 49.2513 47.9356 51.5586H56.4316L59.7022 37.6915L59.7069 37.6962Z" fill="white"/>
<path d="M88.0989 34.9659H102.633V26.5686H74.6031V51.5679H102.831V43.4995H88.0989V41.5823C88.0989 41.5823 88.1083 41.5682 88.1318 41.5682H102.13V36.8691H88.0989V34.9659Z" fill="white"/>
<path d="M137.162 31.9162C136.429 30.8589 135.485 29.9332 134.329 29.1343C133.173 28.3355 131.791 27.7058 130.179 27.25C128.568 26.7942 126.716 26.5686 124.63 26.5686H104.767V51.5679H124.63C127.205 51.5679 129.423 51.2107 131.279 50.5012C133.135 49.7869 134.658 48.833 135.847 47.6347C137.035 46.4317 137.909 45.0831 138.478 43.5841C139.047 42.0851 139.329 40.5438 139.329 38.9696C139.329 37.7243 139.15 36.5025 138.793 35.3042C138.436 34.106 137.891 32.9782 137.162 31.9209V31.9162ZM124.945 40.1631C124.799 40.5203 124.597 40.8304 124.329 41.0982C124.061 41.3661 123.737 41.5776 123.347 41.7326C122.957 41.8877 122.515 41.9676 122.026 41.9676H117.962V36.1689H121.961C122.647 36.1689 123.229 36.2958 123.695 36.5495C124.16 36.8033 124.522 37.1557 124.775 37.5974C125.029 38.0438 125.156 38.5325 125.156 39.0635C125.156 39.4395 125.086 39.806 124.94 40.1631H124.945Z" fill="white"/>
<path d="M140.997 29.4492V51.5632H154.826V26.564H140.997V29.4492Z" fill="white"/>
<path d="M189.806 47.3811C189.416 45.9901 189.031 44.6039 188.641 43.213C188.251 41.822 187.861 40.4358 187.457 39.0449C187.057 37.6539 186.663 36.2677 186.273 34.8767C185.883 33.4858 185.493 32.0996 185.107 30.7086C184.717 29.3177 184.323 27.9362 183.923 26.5593H163.224C162.843 27.9362 162.462 29.3224 162.072 30.7086C161.682 32.0996 161.292 33.4858 160.907 34.8767C160.517 36.2677 160.127 37.6539 159.742 39.0449C159.352 40.4358 158.961 41.822 158.576 43.213C158.186 44.6039 157.796 45.9901 157.411 47.3811C157.021 48.772 156.626 50.163 156.227 51.5633H170.46L171.029 48.2974H175.563L176.132 51.5633H191C190.601 50.163 190.206 48.772 189.816 47.3811H189.806ZM175.126 45.9619H171.428V45.9291C171.607 44.8436 171.762 43.8802 171.893 43.0438C172.025 42.2121 172.171 41.3192 172.326 40.3794C172.481 39.4349 172.631 38.5421 172.777 37.6962C172.923 36.8504 173.082 35.8965 173.261 34.8298H173.298C173.501 35.8965 173.665 36.8551 173.797 37.6962C173.928 38.5374 174.074 39.4349 174.229 40.3794C174.384 41.3239 174.534 42.2121 174.68 43.0438C174.826 43.8755 174.985 44.8389 175.164 45.9291C175.164 45.9525 175.155 45.9619 175.131 45.9619H175.126Z" fill="white"/>
<path d="M60.4587 74.9787C60.4587 76.1018 60.3225 77.1168 60.0452 78.0285C59.768 78.9354 59.284 79.6591 58.5932 80.1995C57.8977 80.7352 56.9344 81.0077 55.6892 81.0077C54.4439 81.0077 53.4054 80.7446 52.7099 80.2183C52.0144 79.692 51.5398 78.9683 51.2908 78.0473C51.0417 77.1262 50.9149 76.1018 50.9149 74.9787V53.7764H48.2599V74.9083C48.2599 76.5107 48.4619 77.9392 48.8707 79.1938C49.2749 80.4485 50.022 81.4306 51.1122 82.1355C52.2024 82.8404 53.7249 83.1928 55.6892 83.1928C57.6534 83.1928 59.096 82.8404 60.1721 82.1355C61.2482 81.4306 62.0001 80.4485 62.4324 79.1938C62.86 77.9392 63.0761 76.5107 63.0761 74.9083V53.7764H60.4587V74.9787Z" fill="white"/>
<path d="M81.1912 53.7764L75.3455 78.9965L69.6032 53.7764H66.8777L66.1635 82.8357H68.4237L68.9923 59.7348L74.4809 82.8357H76.2431L81.8021 59.6972L82.3754 82.8357H84.6357L83.9167 53.7764H81.1912Z" fill="white"/>
<path d="M101.571 53.7764L98.1221 70.6744L94.9314 53.7764H88.0425L87.5397 82.8357H92.1683L92.6006 63.3579L96.1908 82.8357H100.241L103.611 63.4988L104.151 82.8357H108.709L108.206 53.7764H101.571Z" fill="white"/>
<path d="M117.929 53.7764H111.505V82.8357H117.929V53.7764Z" fill="white"/>
<path d="M119.075 58.5507H123.45V82.8357H129.907V58.5507H134.249V53.7764H119.075V58.5507Z" fill="white"/>
<path d="M40.7648 18.1902H42.8089L44.1716 24.3977H52.6394L50.2711 16.2213C52.0426 14.7833 52.9261 12.4009 52.9261 9.06451C52.9261 5.72814 52.1272 3.44437 50.5248 2.21321C48.9224 0.982038 46.2674 0.366455 42.5598 0.366455H32.4427V24.4024H40.7648V18.1949V18.1902ZM40.7272 6.92641H42.5598C43.8756 6.92641 44.5335 7.71116 44.5335 9.27597C44.5335 10.8408 43.9461 11.6255 42.776 11.6255H40.7272V6.92641Z" fill="white"/>
<path d="M72.5683 17.7577H62.8835V15.6055H70.4162V9.04089H62.8835V7.14245H74.744V24.3929H83.0662V7.14245H87.7277V0.356934H72.5683H58.7483H54.5614V24.3929H72.5683V17.7577Z" fill="white"/>
<path d="M89.9222 20.1638H97.0272L96.8815 24.3977H101.834L102.586 0.00463867H94.048L83.0662 24.3977H88.019L89.9222 20.1638ZM96.952 4.30902H97.7039L97.2011 15.8594H91.783L96.952 4.30902Z" fill="white"/>
<path d="M113.845 0H108.897L103.263 24.3931H108.216L113.845 0Z" fill="white"/>
<path d="M124.146 24.3931L125.114 20.0934H117.398L122.026 0H117.078L111.444 24.3931H124.146Z" fill="white"/>
<path d="M46.3614 39.0637L36.4181 42.6115L43.2506 50.6517L32.8703 48.758L34.764 59.1336L26.7238 52.3058L23.176 62.2397L19.6282 52.3058L11.588 59.1383L13.4864 48.758L3.10141 50.6517L9.93862 42.6115L0 39.0637L9.93862 35.5159L3.10611 27.4757L13.4864 29.3741L11.5927 18.9938L19.6329 25.8263L23.1854 15.8877L26.7285 25.8263L34.7734 18.9938L32.875 29.3741L43.2553 27.4757L36.4228 35.5159L46.3614 39.0637Z" fill="#72DDFF"/>
</svg>
